<?xml version="1.0" encoding="UTF-8"?>
<svg xmlns="http://www.w3.org/2000/svg" xmlns:xlink="http://www.w3.org/1999/xlink" width="32px" height="32px" viewBox="0 0 32 32" version="1.1">
<defs>
<linearGradient id="linear0" gradientUnits="userSpaceOnUse" x1="0.5" y1="0" x2="0.5" y2="1" gradientTransform="matrix(32,0,0,32,0,0)">
<stop offset="0.25" style="stop-color:rgb(54.509804%,66.27451%,57.254902%);stop-opacity:1;"/>
<stop offset="1" style="stop-color:rgb(47.843137%,22.352941%,54.509804%);stop-opacity:1;"/>
</linearGradient>
<linearGradient id="linear1" gradientUnits="userSpaceOnUse" x1="0.5" y1="0" x2="0.5" y2="1" gradientTransform="matrix(32,0,0,32,0,-16)">
<stop offset="0.25" style="stop-color:rgb(54.509804%,66.27451%,57.254902%);stop-opacity:1;"/>
<stop offset="1" style="stop-color:rgb(47.843137%,22.352941%,54.509804%);stop-opacity:1;"/>
</linearGradient>
<linearGradient id="linear2" gradientUnits="userSpaceOnUse" x1="0.5" y1="0" x2="0.5" y2="1" gradientTransform="matrix(32,0,0,32,0,16)">
<stop offset="0.25" style="stop-color:rgb(54.509804%,66.27451%,57.254902%);stop-opacity:1;"/>
<stop offset="1" style="stop-color:rgb(47.843137%,22.352941%,54.509804%);stop-opacity:1;"/>
</linearGradient>
</defs>
<g id="surface1">
<rect x="0" y="0" width="32" height="32" style="fill:url(#linear0);stroke:none;"/>
<path style=" stroke:none;fill-rule:nonzero;fill:url(#linear1);" d="M 32 0 C 32 -8.835938 24.835938 -16 16 -16 C 7.164062 -16 0 -8.835938 0 0 C 0 8.835938 7.164062 16 16 16 C 24.835938 16 32 8.835938 32 0 Z M 32 0 "/>
<path style=" stroke:none;fill-rule:nonzero;fill:url(#linear2);" d="M 32 32 C 32 23.164062 24.835938 16 16 16 C 7.164062 16 0 23.164062 0 32 C 0 40.835938 7.164062 48 16 48 C 24.835938 48 32 40.835938 32 32 Z M 32 32 "/>
</g>
</svg>
